<svg xmlns="http://www.w3.org/2000/svg" width="1200" height="630" viewBox="0 0 1200 630">
  <defs>
    <linearGradient id="bg" x1="0" y1="0" x2="1" y2="1">
      <stop offset="0" stop-color="#05110b"/>
      <stop offset="0.48" stop-color="#080b07"/>
      <stop offset="1" stop-color="#121506"/>
    </linearGradient>
    <radialGradient id="glow" cx="78%" cy="12%" r="45%">
      <stop offset="0" stop-color="#f5c400" stop-opacity="0.22"/>
      <stop offset="1" stop-color="#f5c400" stop-opacity="0"/>
    </radialGradient>
    <clipPath id="beerCut">
      <polygon points="864,0 1200,0 1200,630 780,630"/>
    </clipPath>
  </defs>
  <rect width="1200" height="630" fill="url(#bg)"/>
  <rect width="1200" height="630" fill="url(#glow)"/>
  <g clip-path="url(#beerCut)">
    <rect x="780" y="0" width="420" height="630" fill="#f5c400"/>
    <circle cx="1042" cy="82" r="15" fill="#fff5cf" opacity="0.28"/>
    <circle cx="1172" cy="78" r="18" fill="#fff5cf" opacity="0.22"/>
    <rect x="780" y="395" width="420" height="58" fill="#062e20" opacity="0.36"/>
  </g>
  <text x="946" y="624" text-anchor="middle" font-family="Georgia" font-size="520" fill="#f5c400" opacity="0.58">&#960;</text>
  <text x="1016" y="78" width="280" transform="rotate(90 1016 78)" font-family="Menlo, Consolas, monospace" font-size="18" font-weight="800" fill="#171106" opacity="0.5">3141592653589793238462643383279502884197169399375105820974944592307816406286208998628034825</text>
  <circle cx="91" cy="85" r="27" fill="#f5c400" fill-opacity="0.14" stroke="#fff5cf" stroke-opacity="0.32"/>
  <text x="91" y="85" text-anchor="middle" dominant-baseline="central" font-family="Georgia" font-size="38" fill="#f5c400">&#960;</text>
  <text x="128" y="97" font-family="Arial" font-size="30" font-weight="900" fill="#fff5cf">PiLSMer</text>
  <text x="64" y="244" font-family="Arial" font-size="86" font-weight="900" fill="#fff5cf">Data-free</text>
  <text x="64" y="324" font-family="Arial" font-size="86" font-weight="900" fill="#fff5cf">key-value storage.</text>
  <text x="68" y="430" font-family="Arial" font-size="28" font-weight="650" fill="#b9ad87">Transcendental compaction.</text>
  <text x="68" y="470" font-family="Arial" font-size="28" font-weight="650" fill="#b9ad87">Pi for storage. Regret for reads.</text>
  <line x1="64" y1="566" x2="324" y2="566" stroke="#d3202a" stroke-width="4"/>
</svg>
